<svg xmlns="http://www.w3.org/2000/svg" xmlns:xlink="http://www.w3.org/1999/xlink" id="Layer_1" width="18" height="18" x="0" y="0" version="1.1" viewBox="0 0 24 24" xml:space="preserve" style="enable-background:new 0 0 24 24"><style type="text/css">.st0{fill:none}</style><path fill="#1a73e8" d="M0,0h24v24H0V0z" class="st0"/><path fill="#1a73e8" d="M12,5.8c-0.7,0-1.2,0.6-1.2,1.2v3.7H7.1c-0.7,0-1.2,0.6-1.2,1.2s0.6,1.2,1.2,1.2h3.7v3.7c0,0.7,0.6,1.2,1.2,1.2	s1.2-0.6,1.2-1.2v-3.7h3.7c0.7,0,1.2-0.6,1.2-1.2s-0.6-1.2-1.2-1.2h-3.7V7.1C13.2,6.4,12.7,5.8,12,5.8z"/></svg>